<?xml version="1.0" encoding="UTF-8"?>
<svg xmlns="http://www.w3.org/2000/svg" viewBox="0 0 160 160">
    <rect width="160" height="160" rx="16" fill="#0f172a"/>
    <g transform="translate(20,40)">
        <path d="M24,40 c20,-36 72,-36 92,0 c-6,10 -22,18 -36,18 h-20 c-14,0 -30,-8 -36,-18z" fill="#fbbf24"
              stroke="#1e293b" stroke-width="2"/>
        <circle cx="82" cy="40" r="8" fill="#fff"/>
        <circle cx="84" cy="40" r="4" fill="#0b0f17"/>
        <path d="M98,44 l14,6 -14,6 z" fill="#ef4444"/>
        <path d="M46,48 c-8,0 -18,10 -18,18 c0,6 8,6 18,0 c10,-6 10,-18 0,-18z" fill="#fde68a" stroke="#1e293b"
              stroke-width="2"/>
    </g>
    <rect x="8" y="8" width="144" height="144" rx="14" fill="none" stroke="#1e293b" stroke-width="2"/>
</svg>
